<svg width="20" height="20" viewBox="0 0 20 20" fill="none" xmlns="http://www.w3.org/2000/svg">
<path d="M11.5321 2.62193L11.5325 2.62143C13.1816 0.676786 15.6978 0.464592 17.3605 2.08337C19.4251 4.09725 19.5497 7.7954 17.6788 10.0019L17.6786 10.0021L10.1203 18.9214C10.0853 18.9627 10.0557 18.9814 10.0381 18.9898C10.0204 18.9982 10.0074 19 9.99833 19C9.98929 19 9.97629 18.9982 9.95858 18.9898C9.941 18.9814 9.91135 18.9627 9.87633 18.9214L2.31844 10.0026C0.450805 7.79597 0.575448 4.09756 2.63989 2.08359C4.30299 0.464193 6.82273 0.677339 8.46745 2.62069L8.46851 2.62193L9.23802 3.52816L10.0003 4.42585L10.7626 3.52816L11.5321 2.62193Z" stroke="#EEEEEE" stroke-width="2"/>
</svg>
