<svg width="20" height="20" viewBox="0 0 20 20" fill="none" xmlns="http://www.w3.org/2000/svg">
<mask id="path-1-inside-1_12_58" fill="white">
<path d="M0.310852 8.96344C0.310852 8.41116 0.758567 7.96344 1.31085 7.96344H18.7369C19.2891 7.96344 19.7369 8.41116 19.7369 8.96344V19C19.7369 19.5523 19.2891 20 18.7369 20H1.31085C0.758566 20 0.310852 19.5523 0.310852 19V8.96344Z"/>
</mask>
<path d="M0.310852 7.96344H19.7369H0.310852ZM21.7369 19C21.7369 20.6569 20.3937 22 18.7369 22H1.31085C-0.346002 22 -1.68915 20.6569 -1.68915 19L2.31085 18H17.7369L21.7369 19ZM1.31085 22C-0.346002 22 -1.68915 20.6569 -1.68915 19V10.9634C-1.68915 9.30659 -0.346002 7.96344 1.31085 7.96344H2.31085C2.31085 7.96344 2.31085 8.41116 2.31085 8.96344V18L1.31085 22ZM18.7369 7.96344C20.3937 7.96344 21.7369 9.30659 21.7369 10.9634V19C21.7369 20.6569 20.3937 22 18.7369 22L17.7369 18V8.96344C17.7369 8.41116 17.7369 7.96344 17.7369 7.96344H18.7369Z" fill="#EEEEEE" mask="url(#path-1-inside-1_12_58)"/>
<mask id="path-3-inside-2_12_58" fill="white">
<path d="M0.757971 9.258C0.339355 8.89775 0.339355 8.31367 0.757971 7.95342L9.24203 0.652293C9.66065 0.292045 10.3394 0.292045 10.758 0.652294L19.242 7.95343C19.6606 8.31367 19.6606 8.89775 19.242 9.258L10.758 16.5591C10.3394 16.9194 9.66064 16.9194 9.24203 16.5591L0.757971 9.258Z"/>
</mask>
<path d="M0.757971 9.258C-0.497877 8.17725 -0.497877 6.42502 0.757971 5.34427L7.72609 -0.652282C8.98193 -1.73303 11.0181 -1.73303 12.2739 -0.652282L10 2.60916L2.27391 9.258C1.8553 9.61825 1.51594 9.91029 1.51594 9.91029L0.757971 9.258ZM20 8.60571L10 17.2114L20 8.60571ZM10 17.2114L0 8.60571L10 17.2114ZM7.72609 -0.652282C8.98193 -1.73303 11.0181 -1.73303 12.2739 -0.652282L19.242 5.34427C20.4979 6.42502 20.4979 8.17725 19.242 9.258L18.4841 9.91029C18.4841 9.91029 18.1447 9.61825 17.7261 9.258L10 2.60916L7.72609 -0.652282Z" fill="#EEEEEE" mask="url(#path-3-inside-2_12_58)"/>
</svg>
