<svg width="20" height="20" viewBox="0 0 20 20" fill="none" xmlns="http://www.w3.org/2000/svg">
<path d="M19.1761 17.0455H0.710227C0.521863 17.0455 0.341214 17.1203 0.208021 17.2535C0.0748273 17.3867 0 17.5673 0 17.7557L0 19.1761C0 19.3645 0.0748273 19.5452 0.208021 19.6783C0.341214 19.8115 0.521863 19.8864 0.710227 19.8864H19.1761C19.3645 19.8864 19.5452 19.8115 19.6783 19.6783C19.8115 19.5452 19.8864 19.3645 19.8864 19.1761V17.7557C19.8864 17.5673 19.8115 17.3867 19.6783 17.2535C19.5452 17.1203 19.3645 17.0455 19.1761 17.0455ZM19.1761 11.3636H0.710227C0.521863 11.3636 0.341214 11.4385 0.208021 11.5717C0.0748273 11.7049 0 11.8855 0 12.0739L0 13.4943C0 13.6827 0.0748273 13.8633 0.208021 13.9965C0.341214 14.1297 0.521863 14.2045 0.710227 14.2045H19.1761C19.3645 14.2045 19.5452 14.1297 19.6783 13.9965C19.8115 13.8633 19.8864 13.6827 19.8864 13.4943V12.0739C19.8864 11.8855 19.8115 11.7049 19.6783 11.5717C19.5452 11.4385 19.3645 11.3636 19.1761 11.3636ZM19.1761 5.68182H0.710227C0.521863 5.68182 0.341214 5.75665 0.208021 5.88984C0.0748273 6.02303 0 6.20368 0 6.39205L0 7.8125C0 8.00086 0.0748273 8.18151 0.208021 8.31471C0.341214 8.4479 0.521863 8.52273 0.710227 8.52273H19.1761C19.3645 8.52273 19.5452 8.4479 19.6783 8.31471C19.8115 8.18151 19.8864 8.00086 19.8864 7.8125V6.39205C19.8864 6.20368 19.8115 6.02303 19.6783 5.88984C19.5452 5.75665 19.3645 5.68182 19.1761 5.68182ZM19.1761 0H0.710227C0.521863 0 0.341214 0.0748273 0.208021 0.208021C0.0748273 0.341214 0 0.521863 0 0.710227L0 2.13068C0 2.31905 0.0748273 2.49969 0.208021 2.63289C0.341214 2.76608 0.521863 2.84091 0.710227 2.84091H19.1761C19.3645 2.84091 19.5452 2.76608 19.6783 2.63289C19.8115 2.49969 19.8864 2.31905 19.8864 2.13068V0.710227C19.8864 0.521863 19.8115 0.341214 19.6783 0.208021C19.5452 0.0748273 19.3645 0 19.1761 0Z" fill="#EEEEEE"/>
<rect x="9.09094" y="9.09091" width="10.9091" height="10.9091" fill="#393E46"/>
<path d="M19.3534 14.7205L13.1036 11.0257C12.5958 10.7257 11.8182 11.0168 11.8182 11.759V19.1468C11.8182 19.8126 12.5408 20.2139 13.1036 19.8801L19.3534 16.1871C19.9109 15.8586 19.9127 15.049 19.3534 14.7205Z" fill="#EEEEEE"/>
</svg>
